<svg xmlns="http://www.w3.org/2000/svg" viewBox="0 0 171.6 178.65"><defs><style>.cls-1,.cls-2,.cls-3,.cls-4,.cls-5,.cls-6{fill:none;stroke:#000;}.cls-1,.cls-3,.cls-4,.cls-5{stroke-linecap:round;}.cls-1,.cls-2,.cls-6{stroke-miterlimit:10;}.cls-1,.cls-2,.cls-5{stroke-width:9px;}.cls-3,.cls-4,.cls-5{stroke-linejoin:round;}.cls-3,.cls-6{stroke-width:7px;}.cls-4{stroke-width:8px;}</style></defs><title>Deal-shaking</title><g id="Layer_2" data-name="Layer 2"><g id="Layer_1-2" data-name="Layer 1"><path class="cls-1" d="M61.2,157.24l5.56-6.15a13.52,13.52,0,0,1,8.43-4.33c6-.72,15.27,2,21.11.39,7.6-2.08,41.79-39.75,41.79-39.75"/><line class="cls-1" x1="21.55" y1="123.22" x2="29.65" y2="114.21"/><line class="cls-2" x1="149.71" y1="117.94" x2="139.66" y2="108.15"/><line class="cls-2" x1="112.6" y1="156.4" x2="99.3" y2="144.89"/><path class="cls-3" d="M32.81,114.13l-3.27-2.82a6.11,6.11,0,0,1-.55-8.8h0a6.51,6.51,0,0,1,9-.54l3.27,2.81a6.12,6.12,0,0,1,.55,8.81h0A6.53,6.53,0,0,1,32.81,114.13Z"/><path class="cls-3" d="M41,104.48,33.78,98.3a6.06,6.06,0,0,1-.55-8.71h0a6.45,6.45,0,0,1,8.94-.53l7.18,6.18A6.06,6.06,0,0,1,49.9,104h0A6.45,6.45,0,0,1,41,104.48Z"/><path class="cls-3" d="M53,95.83,41.13,85.58a7,7,0,0,1-.63-10h0a7.42,7.42,0,0,1,10.3-.61L62.7,85.17a7,7,0,0,1,.63,10h0A7.43,7.43,0,0,1,53,95.83Z"/><path class="cls-3" d="M65.71,85.42l-16.2-14a7,7,0,0,1-.63-10.06h0a7.46,7.46,0,0,1,10.33-.62l16.2,14A7,7,0,0,1,76,84.81h0A7.45,7.45,0,0,1,65.71,85.42Z"/><line class="cls-4" x1="60.02" y1="51.53" x2="96.85" y2="53.27"/><line class="cls-5" x1="79.01" y1="72.65" x2="94.71" y2="55.61"/><line class="cls-5" x1="112.47" y1="64.03" x2="107.18" y2="70.03"/><line class="cls-5" x1="124.82" y1="74.19" x2="116.14" y2="84.03"/><line class="cls-5" x1="136.01" y1="87.23" x2="129.47" y2="94.3"/><line class="cls-5" x1="143.96" y1="97.81" x2="135.36" y2="110.37"/><path class="cls-5" d="M112.6,63.66c3.94-7.6-12-16-18-7.9"/><path class="cls-5" d="M125.23,73.66c3.74-3.88-3.9-15.87-13.18-9.09"/><path class="cls-5" d="M136.42,86.35c6.1-8.08-7.11-16.51-12.56-11.08"/><path class="cls-5" d="M144,97.81c5.14-9-3.61-14-8.6-9.66"/><path class="cls-5" d="M60,51.53C58.9,65.91,77.38,71.4,84.19,67"/><path class="cls-6" d="M17.59,122.16l44.18,38.15A5.14,5.14,0,0,1,62,167.7L57,173.29a5.47,5.47,0,0,1-7.56.62L5.21,135.76a5.14,5.14,0,0,1-.28-7.39l5.1-5.59A5.47,5.47,0,0,1,17.59,122.16Z"/><line class="cls-1" x1="20.82" y1="23.63" x2="39.99" y2="43.84"/><line class="cls-1" x1="82.12" y1="4.5" x2="83.6" y2="24.55"/><line class="cls-1" x1="153.66" y1="22.7" x2="134.25" y2="44.77"/><path class="cls-6" d="M166.49,130.86,122.7,173.51a5.6,5.6,0,0,1-7.77,0l-5.43-5.29a5.24,5.24,0,0,1,0-7.56L153.29,118a5.6,5.6,0,0,1,7.77,0l5.43,5.29A5.25,5.25,0,0,1,166.49,130.86Z"/></g></g></svg>