<svg xmlns="http://www.w3.org/2000/svg" viewBox="0 0 140.06 148.62"><defs><style>.cls-1,.cls-2,.cls-3,.cls-4,.cls-5,.cls-6{fill:none;stroke:#000;}.cls-1,.cls-4,.cls-5,.cls-6{stroke-linecap:round;}.cls-1,.cls-2,.cls-3,.cls-6{stroke-miterlimit:10;}.cls-1,.cls-3,.cls-5{stroke-width:5px;}.cls-2,.cls-4{stroke-width:4px;}.cls-4,.cls-5{stroke-linejoin:round;}.cls-6{stroke-width:6px;}</style></defs><title>Deal-shake</title><g id="Layer_2" data-name="Layer 2"><g id="Layer_1-2" data-name="Layer 1"><path class="cls-1" d="M50.65,130.52l4.52-5.13A10.91,10.91,0,0,1,62,121.77c4.9-.6,12.42,1.66,17.17.33,6.18-1.74,34-33.19,34-33.19"/><line class="cls-1" x1="18.41" y1="102.12" x2="25" y2="94.59"/><line class="cls-2" x1="122.62" y1="97.72" x2="114.44" y2="89.54"/><line class="cls-3" x1="92.44" y1="129.82" x2="81.63" y2="120.21"/><rect class="cls-4" x="22.71" y="84.24" width="13.96" height="10.42" rx="5.21" ry="5.21" transform="translate(66.72 2.78) rotate(41.49)"/><rect class="cls-5" x="25.64" y="74.89" width="18.09" height="10.3" rx="5.15" ry="5.15" transform="translate(61.73 -2.89) rotate(41.49)"/><rect class="cls-5" x="30.71" y="64.59" width="24.79" height="11.87" rx="5.94" ry="5.94" transform="translate(57.54 -10.86) rotate(41.49)"/><rect class="cls-5" x="36.93" y="54.33" width="29.48" height="11.9" rx="5.95" ry="5.95" transform="translate(52.91 -19.11) rotate(41.49)"/><line class="cls-5" x1="49.69" y1="42.27" x2="79.64" y2="43.72"/><line class="cls-5" x1="65.13" y1="59.9" x2="77.9" y2="45.67"/><line class="cls-5" x1="92.34" y1="52.7" x2="88.03" y2="57.71"/><line class="cls-5" x1="102.38" y1="61.19" x2="95.32" y2="69.4"/><line class="cls-5" x1="111.48" y1="72.07" x2="106.16" y2="77.98"/><line class="cls-5" x1="117.94" y1="80.9" x2="110.94" y2="91.39"/><path class="cls-5" d="M92.44,52.39c3.21-6.34-9.74-13.33-14.65-6.59"/><path class="cls-5" d="M102.71,60.74c3-3.23-3.17-13.25-10.72-7.59"/><path class="cls-5" d="M111.81,71.33c5-6.74-5.78-13.77-10.21-9.25"/><path class="cls-5" d="M117.94,80.9c4.18-7.5-2.93-11.72-7-8.06"/><path class="cls-5" d="M49.69,42.27c-.91,12,14.11,16.59,19.65,12.94"/><rect class="cls-3" x="-1.78" y="115.02" width="59.29" height="15.17" rx="4.47" ry="4.47" transform="translate(-32.71 232.79) rotate(-138.4)"/><line class="cls-6" x1="17.82" y1="18.97" x2="33.4" y2="35.85"/><line class="cls-6" x1="67.66" y1="3" x2="68.87" y2="19.74"/><line class="cls-6" x1="125.83" y1="18.2" x2="110.05" y2="36.62"/><rect class="cls-3" x="83.45" y="113.35" width="59.29" height="15.17" rx="4.47" ry="4.47" transform="translate(-52.39 115.39) rotate(-45)"/></g></g></svg>