<svg xmlns="http://www.w3.org/2000/svg" viewBox="0 0 186.13 101.49"><defs><style>.cls-1{fill:none;stroke:#000;stroke-linecap:round;stroke-miterlimit:10;stroke-width:7px;}</style></defs><title>group-workout</title><g id="Layer_2" data-name="Layer 2"><g id="Layer_1-2" data-name="Layer 1"><path class="cls-1" d="M46.32,98c0-22.79,8.93-41.24,25.93-41.24"/><path class="cls-1" d="M72.25,56.75a41.9,41.9,0,0,0,43.25,0"/><path class="cls-1" d="M140,98c0-22.79-11-41.24-24.53-41.24"/><path class="cls-1" d="M3.5,95.17c0-20.35,6.62-41.43,40-32.17"/><path class="cls-1" d="M143.11,60.63c30-9.33,39.87,12.69,39.51,35"/><path class="cls-1" d="M3.5,95.17C3.5,96.71,14.33,98,27.72,98"/><path class="cls-1" d="M182.62,95.59c0,1-11.2,1.9-25,1.9"/><path class="cls-1" d="M27.72,98c0-19.33,7-35,15.74-35"/><path class="cls-1" d="M157.58,97.49c0-20.37-6.47-36.86-14.47-36.86"/><ellipse class="cls-1" cx="93.87" cy="26.91" rx="23.18" ry="23.41"/><circle class="cls-1" cx="38.86" cy="35.75" r="16.98"/><path class="cls-1" d="M46.32,98H140"/><circle class="cls-1" cx="147.72" cy="33.34" r="16.98"/></g></g></svg>