<svg xmlns="http://www.w3.org/2000/svg" viewBox="0 0 164.82 181.4"><defs><style>.cls-1{fill:none;stroke:#000;stroke-linecap:round;stroke-miterlimit:10;stroke-width:8px;}</style></defs><title>KBthick</title><g id="Layer_2" data-name="Layer 2"><g id="Layer_1-2" data-name="Layer 1"><path class="cls-1" d="M34,77.42,23.44,42.13C17.58,21.83,49.54,4,81.74,4S145.85,21.82,140,42.13l-9.49,35.29"/><path class="cls-1" d="M34,77.42c-9.26,5.49-30.94,24.35-30,52.37,1.28,37.05,35.1,47.61,78.39,47.61s78.39-10.54,78.4-47.61c0-28.06-19.37-46.08-30.27-52.37"/><path class="cls-1" d="M45.9,67.93c15.73-11.34,54.09-9.6,69.95.33"/><path class="cls-1" d="M116.46,67.93c1.28-3.83,6.31-17.94,8.2-24.51,4.31-15-19.33-28.23-43.16-28.23S34,28.4,38.33,43.42L45.9,67.93"/><path d="M37.89,107.63A23.11,23.11,0,0,1,50,96.42c6-2.16,3.42-11.83-2.66-9.64-7.3,2.63-14.79,8.64-18.11,15.8-1.13,2.45-.69,5.39,1.8,6.84,2.16,1.27,5.7.67,6.84-1.79Z"/><path d="M63.58,85.79c.47-.47-.4-.32.57-.23"/><path d="M70.29,85.82a2.22,2.22,0,0,0,.17-3.09,7.35,7.35,0,0,0-1-.65l-1.31-.38a8.52,8.52,0,0,0-2.52-.07,16.46,16.46,0,0,0-2.88.46,11.18,11.18,0,0,0-5.33,2.85,3.2,3.2,0,0,0-1,1.5,1.78,1.78,0,0,0,.48,1.8l.95.61a5,5,0,0,0,.72.22,6.12,6.12,0,0,0,1.07.25,14.21,14.21,0,0,0,5.39-.38,10.86,10.86,0,0,0,2.71-1,8.35,8.35,0,0,0,2.15-1.32c.74-.68,1.91-1.82,1.48-3a3.24,3.24,0,0,0-2.76-1.82,2,2,0,0,1-.42-.07l1.32.39-.06,0,1,.61h0l-5.84,6.15h-6.7s0,0,0,0L57,88.25v0l-.5-.83a.07.07,0,0,1,0,.06l0-1a.42.42,0,0,1,0,.1l.51-1a.83.83,0,0,1-.11.15,2.07,2.07,0,0,0,0,2.79c.85.92,2.74,1.15,3.87,1.13a14.69,14.69,0,0,0,5.67-1.15L68,87.73a7.59,7.59,0,0,0,2.27-1.91Z"/></g></g></svg>