<svg xmlns="http://www.w3.org/2000/svg" viewBox="0 0 151.82 80.63"><defs><style>.cls-1{fill:none;stroke:#000;stroke-linecap:round;stroke-miterlimit:10;stroke-width:5px;}</style></defs><title>Peeps</title><g id="Layer_2" data-name="Layer 2"><g id="Layer_1-2" data-name="Layer 1"><path class="cls-1" d="M37.15,77.62c0-18.12,7.35-32.79,21.35-32.79"/><path class="cls-1" d="M58.5,44.83a35.47,35.47,0,0,0,35.58,0"/><path class="cls-1" d="M114.27,77.62c0-18.12-9-32.79-20.19-32.79"/><path class="cls-1" d="M2.5,76c0-15.56,1.66-31.09,29.1-24"/><path class="cls-1" d="M120.59,50.42c24.73-7.42,29,7.58,28.72,25.29"/><path class="cls-1" d="M2.5,76c0,1.18,8.91,2.13,19.93,2.13"/><path class="cls-1" d="M149.31,75.71c0,.83-9.22,1.51-20.61,1.51"/><path class="cls-1" d="M22.43,78.13C22.43,63.36,27,55.94,31.6,52"/><path class="cls-1" d="M128.7,77.22c0-16.2-2.37-19.3-8.11-26.8"/><ellipse class="cls-1" cx="76.29" cy="21.11" rx="19.07" ry="18.61"/><ellipse class="cls-1" cx="32.77" cy="29.14" rx="13.97" ry="13.5"/><path class="cls-1" d="M37.15,77.62h77.12"/><ellipse class="cls-1" cx="119.65" cy="27.62" rx="13.97" ry="13.5"/></g></g></svg>